<svg viewBox="0 0 1000 1000" fill="none" xmlns="http://www.w3.org/2000/svg">
    <mask id="mask0" mask-type="alpha" maskUnits="userSpaceOnUse" x="338" y="264" width="323" height="499">
        <path
            d="M354.057 580.51C350.117 582.511 345.302 580.939 343.301 576.999L339.679 569.866C337.679 565.927 339.251 561.112 343.19 559.111L525.287 466.641C529.226 464.641 534.041 466.212 536.042 470.152L539.664 477.285C541.665 481.224 540.093 486.04 536.153 488.04L354.057 580.51Z"
            fill="#B3B3B3" />
        <path
            d="M645.541 580.51C649.48 582.511 654.295 580.939 656.296 576.999L659.918 569.866C661.919 565.927 660.347 561.112 656.407 559.111L474.311 466.641C470.371 464.641 465.556 466.212 463.556 470.152L459.933 477.285C457.933 481.224 459.505 486.04 463.444 488.04L645.541 580.51Z"
            fill="#B3B3B3" />
        <path
            d="M483 272C483 267.582 486.582 264 491 264H507C511.418 264 515 267.582 515 272V755C515 759.418 511.418 763 507 763H491C486.582 763 483 759.418 483 755V272Z"
            fill="#B3B3B3" />
    </mask>
    <g mask="url(#mask0)">
        <rect width="1000" height="1000" fill="url(#paint0_linear)" />
    </g>
    <mask id="mask1" mask-type="alpha" maskUnits="userSpaceOnUse" x="190" y="192" width="619" height="595">
        <path
            d="M516.5 196.928C518.709 193.102 523.602 191.791 527.428 194L555.141 210C558.967 212.209 560.278 217.102 558.069 220.928L233.569 782.979C231.36 786.805 226.467 788.116 222.641 785.907L194.928 769.907C191.102 767.698 189.791 762.805 192 758.979L516.5 196.928Z"
            fill="#C4C4C4" />
        <path
            d="M257 594C252.582 594 249 590.418 249 586V570C249 565.582 252.582 562 257 562H743C747.418 562 751 565.582 751 570V586C751 590.418 747.418 594 743 594H257Z"
            fill="#C4C4C4" />
        <path
            d="M482.622 196.928C480.413 193.102 475.52 191.791 471.694 194L443.981 210C440.154 212.209 438.843 217.102 441.052 220.928L765.552 782.979C767.762 786.805 772.654 788.116 776.481 785.907L804.194 769.907C808.02 767.698 809.331 762.805 807.122 758.979L482.622 196.928Z"
            fill="#C4C4C4" />
    </mask>
    <g mask="url(#mask1)">
        <rect width="1000" height="1000" fill="url(#paint1_linear)" />
    </g>
    <defs>
        <linearGradient id="paint0_linear" x1="1000" y1="0" x2="0" y2="1000" gradientUnits="userSpaceOnUse">
            <stop stop-color="#020015" />
            <stop offset="0.302083" stop-color="#5C009B" />
            <stop offset="0.651042" stop-color="#B80087" />
            <stop offset="1" stop-color="#FDEFF9" />
        </linearGradient>
        <linearGradient id="paint1_linear" x1="1000" y1="0" x2="0" y2="1000" gradientUnits="userSpaceOnUse">
            <stop stop-color="#03001E" />
            <stop offset="0.302083" stop-color="#7303C0" />
            <stop offset="0.651042" stop-color="#EC38BC" />
            <stop offset="1" stop-color="#FDEFF9" />
        </linearGradient>
    </defs>
</svg>