<?xml version="1.0" standalone="no"?>
<!DOCTYPE svg PUBLIC "-//W3C//DTD SVG 20010904//EN"
 "http://www.w3.org/TR/2001/REC-SVG-20010904/DTD/svg10.dtd">
<svg version="1.0" xmlns="http://www.w3.org/2000/svg"
 width="1000.000000pt" height="1000.000000pt" viewBox="0 0 1000.000000 1000.000000"
 preserveAspectRatio="xMidYMid meet">
<metadata>
Created by potrace 1.14, written by Peter Selinger 2001-2017
</metadata>
<g transform="translate(0.000000,1000.000000) scale(0.100000,-0.100000)"
fill="#000000" stroke="none">
<path d="M4605 9214 c-16 -9 -50 -29 -75 -44 -25 -15 -111 -66 -191 -113 -113
-67 -150 -93 -162 -118 -28 -58 -25 -64 158 -384 29 -49 87 -153 130 -230 43
-77 93 -165 111 -195 l33 -55 -41 -75 c-23 -41 -94 -167 -158 -280 -65 -113
-129 -227 -145 -255 -15 -27 -55 -99 -90 -160 -34 -60 -74 -131 -88 -157 -73
-130 -133 -236 -147 -258 -5 -8 -18 -31 -28 -50 -11 -19 -144 -255 -297 -525
-153 -269 -289 -510 -303 -535 -13 -25 -40 -71 -58 -103 -19 -32 -34 -60 -34
-63 0 -2 -11 -21 -24 -42 -22 -36 -147 -254 -192 -337 -32 -60 -398 -706 -460
-813 -30 -51 -54 -94 -54 -96 0 -1 -45 -80 -99 -176 l-100 -175 -348 0 c-388
-1 -400 -3 -428 -61 -13 -29 -16 -62 -13 -183 3 -162 10 -180 68 -203 14 -5
123 -10 243 -10 119 0 217 -1 217 -3 0 -2 -26 -50 -59 -107 -149 -262 -275
-487 -295 -523 -11 -22 -24 -42 -28 -43 -5 -2 -8 -8 -8 -12 0 -5 -26 -55 -59
-112 -46 -81 -276 -487 -514 -908 -11 -19 -100 -177 -198 -351 -197 -348 -201
-360 -151 -416 31 -36 410 -261 453 -270 47 -9 87 15 125 74 19 29 34 55 34
58 0 2 29 54 65 116 36 61 65 113 65 115 0 2 15 29 34 61 18 32 45 78 58 103
14 25 71 126 127 224 55 99 101 183 101 188 0 4 4 8 8 8 4 0 13 12 19 28 7 15
24 47 38 72 15 25 66 115 115 200 442 782 613 1084 632 1119 13 23 28 50 33
59 6 10 37 65 69 122 32 58 69 122 82 142 13 21 24 42 24 47 0 6 385 9 983 9
l983 0 0 -1144 c-1 -629 2 -1157 6 -1172 4 -15 19 -39 34 -53 25 -23 32 -24
178 -26 l153 -2 34 28 34 29 3 1170 2 1170 986 0 985 0 23 -36 c12 -21 25 -44
29 -52 4 -8 18 -33 32 -55 14 -22 28 -47 32 -55 3 -8 41 -76 83 -150 74 -130
99 -174 156 -278 15 -26 50 -87 79 -137 28 -49 76 -133 105 -185 29 -52 62
-111 73 -130 11 -19 31 -55 45 -80 46 -82 58 -104 192 -340 193 -340 339 -598
368 -650 38 -68 229 -405 280 -493 68 -118 113 -132 222 -66 30 17 64 37 75
43 100 56 287 171 300 186 9 10 19 36 22 57 4 34 -4 54 -64 163 -86 155 -118
211 -154 272 -16 27 -29 50 -29 52 0 2 -23 43 -51 92 -29 49 -63 109 -77 134
-13 25 -59 106 -102 180 -42 74 -80 142 -83 150 -4 8 -17 31 -28 50 -12 19
-82 143 -157 275 -178 317 -242 427 -254 443 -6 6 -7 12 -4 12 4 0 -1 12 -12
28 -10 15 -30 47 -44 72 -14 25 -34 61 -45 80 -11 19 -34 61 -52 94 -18 32
-46 81 -62 108 -16 27 -29 50 -29 52 0 2 -17 33 -38 67 -65 108 -83 98 179 97
249 0 259 2 295 57 25 39 24 300 -2 344 -31 53 -46 55 -430 55 -194 1 -354 3
-357 6 -4 5 -58 99 -115 200 -13 25 -42 74 -62 110 -20 36 -49 85 -62 110 -14
25 -52 92 -85 150 -33 58 -71 125 -85 150 -14 25 -54 97 -90 160 -36 63 -76
133 -88 155 -30 53 -242 429 -303 535 -11 19 -31 55 -45 80 -14 25 -84 149
-155 275 -72 127 -149 264 -172 305 -23 41 -56 99 -74 128 -17 29 -31 55 -31
57 0 2 -22 42 -48 87 -27 46 -120 209 -207 363 -87 154 -173 306 -192 338 -18
32 -33 61 -33 63 0 3 -8 18 -18 32 -11 15 -35 56 -54 92 -20 36 -81 145 -137
243 -55 97 -101 180 -101 184 0 3 -6 14 -14 22 -7 9 -27 41 -43 71 -17 30 -46
84 -66 120 l-35 65 60 105 c33 58 88 155 123 215 34 61 72 128 85 150 105 183
170 306 174 329 10 53 -20 95 -99 140 -22 13 -114 66 -205 119 -183 108 -206
114 -257 70 -28 -24 -115 -168 -228 -377 -17 -32 -35 -59 -39 -60 -4 0 -21 24
-38 54 -16 30 -35 64 -42 75 -7 11 -28 47 -46 80 -77 141 -121 213 -139 229
-27 25 -90 30 -126 10z m725 -2419 c0 -2 29 -54 65 -115 36 -61 65 -113 65
-116 0 -2 10 -21 23 -42 13 -20 37 -62 54 -92 26 -48 303 -538 354 -627 31
-55 54 -95 89 -158 18 -33 44 -77 57 -97 12 -21 23 -40 23 -42 0 -3 29 -55 65
-117 36 -61 65 -113 65 -115 0 -2 22 -41 48 -86 94 -161 106 -183 107 -188 0
-3 26 -48 56 -100 31 -52 95 -165 143 -250 48 -85 91 -162 96 -170 5 -8 37
-64 71 -125 34 -60 64 -114 67 -118 4 -8 -70 29 -415 208 -43 22 -172 89 -288
149 -115 60 -246 128 -290 151 -44 23 -153 80 -242 126 -90 46 -163 87 -163
91 0 3 28 20 63 38 76 38 89 48 109 80 22 36 14 85 -28 167 -27 54 -45 76 -69
88 -48 22 -65 19 -151 -25 -43 -22 -82 -40 -86 -40 -5 0 -8 390 -8 867 l0 868
60 -103 c33 -57 60 -105 60 -107z m-564 -665 c0 -467 -1 -850 -3 -850 -3 0
-38 16 -78 36 -114 55 -155 41 -213 -77 -39 -78 -45 -117 -26 -154 18 -35 33
-46 112 -85 34 -17 62 -34 62 -38 0 -7 -30 -23 -390 -209 -102 -53 -225 -117
-275 -143 -88 -46 -204 -106 -550 -285 -93 -48 -176 -92 -182 -98 -7 -5 -13
-6 -13 -2 0 4 60 114 134 244 74 130 144 254 156 276 13 22 34 60 48 84 14 25
37 65 52 90 14 26 29 53 33 61 4 8 17 31 28 50 11 19 55 96 97 170 41 74 138
244 214 378 76 134 138 245 138 248 0 2 11 22 25 44 14 22 38 64 54 92 32 58
119 211 138 243 7 11 15 26 19 33 11 23 256 455 340 602 27 47 55 98 63 113 8
15 15 27 16 27 1 0 2 -382 1 -850z m859 -1685 c94 -48 215 -111 270 -140 55
-29 215 -112 355 -185 140 -73 258 -135 262 -139 5 -4 -287 -7 -647 -7 l-655
0 0 343 0 343 123 -64 c67 -35 199 -103 292 -151z m-860 -127 c-1 -183 -3
-335 -4 -339 0 -3 -289 -5 -641 -5 -352 0 -637 3 -632 7 7 7 82 46 377 199 88
45 205 106 260 135 55 29 177 92 270 140 127 66 363 190 371 195 0 0 -1 -150
-1 -332z"/>
</g>
</svg>
